<svg width="59" height="52" viewBox="0 0 59 52" fill="none" xmlns="http://www.w3.org/2000/svg">
<path d="M48.191 16.8512C47.5688 16.6423 46.9465 16.445 46.3242 16.2593C46.4279 15.8298 46.5201 15.4004 46.6123 14.971C48.0297 8.05347 47.0963 2.49395 43.9504 0.66012C40.9197 -1.09246 35.9762 0.729759 30.975 5.11702C30.4795 5.54647 29.9955 5.99912 29.5346 6.45178C29.2234 6.15001 28.9008 5.84824 28.5781 5.55807C23.335 0.869038 18.0803 -1.10407 14.9344 0.741366C11.9152 2.50556 11.0164 7.7401 12.284 14.2862C12.4107 14.9361 12.549 15.5745 12.7104 16.2245C11.9729 16.4334 11.2469 16.6655 10.567 16.9093C4.41348 19.0565 0 22.4456 0 25.9507C0 29.572 4.70156 33.2048 11.0971 35.41C11.6156 35.5841 12.1342 35.7582 12.6643 35.9091C12.4914 36.6055 12.3416 37.2903 12.2033 37.9983C10.9934 44.4399 11.9383 49.5468 14.9574 51.2994C18.0688 53.11 23.3004 51.253 28.3937 46.7612C28.7971 46.4014 29.2004 46.03 29.6037 45.6354C30.1107 46.1345 30.6408 46.6103 31.1709 47.0746C36.1029 51.3458 40.9773 53.0752 43.985 51.3226C47.0963 49.512 48.1104 44.0221 46.7967 37.3367C46.693 36.826 46.5777 36.3038 46.451 35.7699C46.8197 35.6654 47.177 35.5493 47.5342 35.4333C54.1832 33.2164 59 29.63 59 25.9507C59 22.434 54.4598 19.0216 48.191 16.8512V16.8512ZM32.5998 6.99728C36.8865 3.23677 40.8852 1.76274 42.7059 2.81893C44.6533 3.94477 45.4023 8.49452 44.1809 14.4719C44.1002 14.8665 44.0195 15.2495 43.9158 15.6325C41.3576 15.0522 38.7648 14.6344 36.1605 14.4022C34.6625 12.2434 33.0262 10.1775 31.2516 8.23918C31.701 7.80974 32.1389 7.40351 32.5998 6.99728V6.99728ZM19.2672 31.9745C19.8549 32.9843 20.4541 33.9941 21.0879 34.9806C19.2902 34.7833 17.5041 34.4931 15.741 34.1101C16.248 32.4388 16.8818 30.7094 17.6193 28.9452C18.1494 29.9666 18.691 30.9764 19.2672 31.9745V31.9745ZM15.7756 18.0119C17.435 17.6405 19.198 17.3387 21.0303 17.1066C20.4195 18.0699 19.8203 19.0565 19.2557 20.0546C18.691 21.0412 18.1379 22.0509 17.6193 23.0723C16.8934 21.3429 16.2826 19.6484 15.7756 18.0119ZM18.933 26.0088C19.6936 24.4071 20.5232 22.8402 21.399 21.2965C22.2748 19.7528 23.2197 18.2556 24.2107 16.7816C25.9393 16.6539 27.7023 16.5843 29.5 16.5843C31.2977 16.5843 33.0723 16.6539 34.7893 16.7816C35.7687 18.244 36.7021 19.7412 37.5895 21.2733C38.4768 22.8054 39.3064 24.3722 40.09 25.9623C39.318 27.564 38.4883 29.1425 37.601 30.6978C36.7252 32.2415 35.7918 33.7387 34.8123 35.2243C33.0953 35.352 31.3092 35.41 29.5 35.41C27.6908 35.41 25.9393 35.352 24.2453 35.2476C23.2428 33.7735 22.2979 32.2647 21.4105 30.721C20.5232 29.1773 19.7051 27.6105 18.933 26.0088ZM39.7443 31.9513C40.332 30.9299 40.8852 29.897 41.4268 28.8524C42.1643 30.5353 42.8096 32.2415 43.3742 33.9941C41.5881 34.4003 39.7789 34.7137 37.9582 34.9226C38.5805 33.9476 39.1682 32.9495 39.7443 31.9513ZM41.4037 23.0723C40.8621 22.0509 40.309 21.0296 39.7328 20.0314C39.1682 19.0449 38.5805 18.0699 37.9697 17.1066C39.825 17.3387 41.5996 17.6521 43.259 18.0351C42.7289 19.7528 42.1066 21.4242 41.4037 23.0723V23.0723ZM29.523 10.015C30.733 11.3381 31.8738 12.7309 32.934 14.1701C30.6523 14.0657 28.3592 14.0657 26.0775 14.1701C27.2068 12.6729 28.3707 11.2801 29.523 10.015ZM16.1559 2.90018C18.0918 1.76274 22.39 3.38765 26.9188 7.42672C27.2068 7.68207 27.4949 7.96062 27.7945 8.23918C26.0084 10.1775 24.3605 12.2434 22.851 14.4022C20.2467 14.6344 17.6654 15.0406 15.1072 15.6093C14.9574 15.0174 14.8307 14.4138 14.7039 13.8103C13.6207 8.19275 14.3352 3.95637 16.1559 2.90018V2.90018ZM13.3326 33.495C12.8486 33.3557 12.3762 33.2048 11.9037 33.0423C9.44922 32.2647 6.66055 31.0344 4.64395 29.4211C3.48008 28.6086 2.69648 27.3551 2.47754 25.9507C2.47754 23.8267 6.11895 21.1108 11.3736 19.2654C12.0305 19.0332 12.6988 18.8243 13.3672 18.627C14.1508 21.1456 15.0957 23.6178 16.1904 26.0088C15.0842 28.4345 14.1277 30.9415 13.3326 33.495V33.495ZM26.7689 44.8694C24.8676 46.622 22.6666 48.0147 20.2697 48.9665C18.9906 49.5816 17.5156 49.6396 16.202 49.1174C14.3697 48.0496 13.6092 43.9525 14.6463 38.4394C14.773 37.7894 14.9113 37.1394 15.0727 36.5011C17.6539 37.0582 20.2582 37.4412 22.8971 37.6385C24.4182 39.8089 26.0891 41.8865 27.8752 43.8364C27.5064 44.1962 27.1377 44.5444 26.7689 44.8694ZM29.5922 42.049C28.4168 40.7723 27.2414 39.3563 26.1006 37.8358C27.2068 37.8822 28.3477 37.9055 29.5 37.9055C30.6869 37.9055 31.8508 37.8822 33.0031 37.8242C31.943 39.2982 30.8021 40.7026 29.5922 42.049V42.049ZM44.6533 45.5309C44.5496 46.9469 43.8582 48.2701 42.752 49.1638C40.9197 50.2316 37.0133 48.8388 32.7957 45.1943C32.3117 44.7765 31.8277 44.3239 31.3322 43.8596C33.0953 41.8981 34.7201 39.8205 36.1951 37.6385C38.834 37.418 41.4613 37.0117 44.0541 36.4198C44.1693 36.8957 44.273 37.3716 44.3652 37.8358C44.9299 40.3428 45.0221 42.9543 44.6533 45.5309V45.5309ZM46.7506 33.0539C46.4279 33.1584 46.1053 33.2628 45.7711 33.3557C44.9645 30.8255 43.9734 28.3533 42.8326 25.9507C43.9389 23.583 44.8723 21.1456 45.6559 18.6502C46.2551 18.8243 46.8313 19.01 47.3844 19.1957C52.7543 21.0528 56.5225 23.8151 56.5225 25.9275C56.5225 28.2024 52.5008 31.1388 46.7506 33.0539ZM29.5 31.3129C32.4154 31.3129 34.7777 28.9336 34.7777 25.9972C34.7777 23.0607 32.4154 20.6814 29.5 20.6814C26.5846 20.6814 24.2223 23.0607 24.2223 25.9972C24.2223 28.9336 26.5846 31.3129 29.5 31.3129Z" fill="white"/>
</svg>
