<svg width="74" height="56" viewBox="0 0 74 56" fill="none" xmlns="http://www.w3.org/2000/svg">
<path d="M34.9002 42.3367C34.8656 42.4067 34.8309 42.4627 34.9002 42.3367V42.3367ZM63.7062 32.1876C61.3807 32.1868 59.0861 32.7256 56.9999 33.7624C56.3177 32.3742 55.6124 31.161 55.4968 30.251C55.358 29.1895 55.2077 28.5595 55.3696 27.2996C55.5315 26.0397 56.2599 24.2549 56.2483 24.1265C56.2368 23.9982 56.0865 23.3566 54.5949 23.3449C53.1033 23.3333 51.8198 23.6366 51.6707 24.0332C51.4073 24.7581 51.2023 25.5032 51.0579 26.2614C50.7919 27.6263 48.0759 32.5025 46.538 35.0457C46.0293 34.0541 45.6015 33.1791 45.509 32.4792C45.3702 31.4176 45.2199 30.7877 45.3818 29.5278C45.5436 28.2679 46.2721 26.483 46.2605 26.3547C46.249 26.2264 46.0987 25.5848 44.6082 25.5731C43.1178 25.5614 41.8332 25.8647 41.6829 26.2614C41.5326 26.658 41.3707 27.5913 41.0701 28.4895C40.7694 29.3878 37.1515 37.5071 36.2045 39.6186C35.7189 40.6919 35.3026 41.5551 35.002 42.1384C34.9557 42.2317 34.9211 42.2901 34.8979 42.3367C34.9326 42.2784 34.9557 42.2201 34.9557 42.2434C34.7014 42.745 34.5511 43.025 34.5511 43.025V43.0367C34.3545 43.41 34.1348 43.7483 34.0307 43.7483C33.9614 43.7483 33.811 42.7684 34.0654 41.4268C34.6089 38.6037 35.8923 34.2174 35.8808 34.0657C35.8692 33.9841 36.1236 33.2258 35.0367 32.8175C33.9845 32.4325 33.6029 33.0741 33.5104 33.0741C33.4179 33.0741 33.3485 33.3075 33.3485 33.3075C33.3485 33.3075 34.5164 28.3612 31.1065 28.3612C28.979 28.3612 26.019 30.7177 24.5644 32.8525C23.651 33.3541 21.6737 34.439 19.5925 35.5939C18.7946 36.0372 17.9737 36.4922 17.199 36.9238C17.1412 36.8655 17.0949 36.8072 17.0371 36.7488C12.8989 32.2925 5.25827 29.1428 5.58203 23.1583C5.69765 20.9768 6.44923 15.2489 20.2747 8.29616C31.606 2.60329 40.6654 4.1665 42.2252 7.64288C44.4683 12.6008 37.3816 21.8284 25.6143 23.1583C21.1291 23.6599 18.7715 21.9101 18.1818 21.2568C17.569 20.5685 17.4765 20.5335 17.2453 20.6618C16.8637 20.8718 17.1065 21.4784 17.2453 21.8401C17.5921 22.7617 19.0375 24.3948 21.4991 25.2115C23.6614 25.9231 28.92 26.3197 35.2783 23.8349C42.4217 21.0585 47.9822 13.3241 46.3519 6.84961C44.6915 0.27015 33.8781 -1.88801 23.6533 1.77503C17.5609 3.95652 10.9725 7.38624 6.233 11.8542C0.603158 17.1738 -0.297572 21.8051 0.0724326 23.7416C1.38942 30.6127 10.776 35.0923 14.5327 38.4054C14.3477 38.5104 14.1742 38.6037 14.0123 38.697C12.1288 39.6419 4.97268 43.4216 3.18163 47.4113C1.15816 51.9376 3.51694 55.1807 5.06518 55.624C9.8972 56.9772 14.8449 54.5391 17.5031 50.5377C20.1614 46.5364 19.8388 41.3101 18.6131 38.9303C18.6016 38.8953 18.5784 38.872 18.5669 38.837C19.0525 38.5454 19.5497 38.2537 20.0469 37.9621C21.0054 37.3905 21.942 36.8655 22.7629 36.4105C22.3004 37.6704 21.9651 39.187 21.7917 41.3801C21.5836 43.9466 22.6358 47.2713 24.0001 48.5779C24.6014 49.1495 25.3287 49.1612 25.7796 49.1612C27.3753 49.1612 28.0922 47.8313 28.8888 46.2447C29.8717 44.3082 30.7389 42.0567 30.7389 42.0567C30.7389 42.0567 29.652 48.1462 32.6236 48.1462C33.7093 48.1462 34.7962 46.7347 35.283 46.0114V46.0231C35.283 46.0231 35.3061 45.9764 35.3639 45.8831C35.4795 45.7081 35.5373 45.6031 35.5373 45.6031V45.5681C35.9767 44.8099 36.9364 43.0717 38.3806 40.2019C40.2537 36.4922 42.0448 31.8609 42.0448 31.8609C42.2179 32.879 42.4573 33.8844 42.7617 34.8707C43.0854 35.9789 43.7676 37.1921 44.3111 38.3704C43.8717 38.977 43.6058 39.327 43.6058 39.327C43.6066 39.3359 43.6107 39.3442 43.6173 39.3503C43.2704 39.8169 42.8773 40.3186 42.4726 40.8085C40.9937 42.5817 39.2351 44.6115 39.0038 45.1948C38.7263 45.8831 38.7957 46.3964 39.3276 46.793C39.7207 47.0963 40.4145 47.143 41.1418 47.0847C42.4715 46.9913 43.408 46.6647 43.859 46.4547C44.6903 46.154 45.476 45.7378 46.1935 45.2182C47.6388 44.1449 48.5176 42.605 48.4366 40.5752C48.3904 39.4553 48.0319 38.3354 47.5925 37.2855C47.7197 37.0988 47.8585 36.9005 47.9857 36.7022C50.2739 33.3308 52.043 29.6304 52.043 29.6304C52.2161 30.6485 52.4556 31.6539 52.7599 32.6402C53.0374 33.5851 53.5797 34.6234 54.0769 35.6383C51.9274 37.3998 50.5977 39.4413 50.1352 40.7828C49.2795 43.2676 49.9502 44.3876 51.2105 44.6442C51.7771 44.7609 52.5864 44.4925 53.1877 44.2359C54.0807 43.9358 54.9226 43.4991 55.6841 42.941C57.1294 41.8678 58.5273 40.3629 58.4348 38.3214C58.4001 37.3998 58.1458 36.4782 57.8104 35.5916C59.6258 34.8217 61.9834 34.4017 64.9897 34.7517C71.4278 35.5099 72.6881 39.5696 72.4453 41.2611C72.2025 42.9527 70.8496 43.8976 70.3987 44.1776C69.9477 44.4576 69.809 44.5625 69.8437 44.7725C69.9015 45.0758 70.1096 45.0642 70.4912 44.9942C71.0231 44.9008 73.8663 43.6176 73.9935 40.4795C74.1785 36.5132 70.3987 32.1502 63.7028 32.1852L63.7062 32.1876ZM14.0817 49.0678C11.9554 51.4126 8.97219 52.2992 7.6899 51.5526C6.31394 50.7454 6.85739 47.2947 9.48095 44.7959C11.0766 43.2793 13.1336 41.8794 14.498 41.0162C14.8102 40.8295 15.2611 40.5495 15.8161 40.2112C15.9086 40.1529 15.9549 40.1296 15.9549 40.1296C16.0589 40.0596 16.1746 40.0012 16.2902 39.9312C17.2487 43.4776 16.3249 46.604 14.0817 49.0655V49.0678ZM29.6173 38.4054C28.8773 40.2369 27.3175 44.9032 26.3693 44.6582C25.5599 44.4482 25.0628 40.8902 26.2075 37.3905C26.7856 35.6289 28.0112 33.5291 28.7397 32.7125C29.9063 31.3943 31.1898 30.9743 31.4904 31.4993C31.8951 32.1875 30.0798 37.2621 29.6173 38.4054ZM42.4518 44.5882C42.1396 44.7515 41.8505 44.8565 41.7118 44.7749C41.6077 44.7165 41.839 44.4949 41.839 44.4949C41.839 44.4949 43.4462 42.7567 44.0821 41.9634C44.4521 41.4968 44.88 40.9485 45.3413 40.3419C45.3413 40.4002 45.3529 40.4585 45.3529 40.5285C45.3378 42.6167 43.3502 44.0283 42.4483 44.5882H42.4518ZM52.3471 42.3134C52.1158 42.1501 52.1505 41.6018 52.9252 39.8986C53.2259 39.2336 53.9185 38.1137 55.1221 37.0405C55.2584 37.4468 55.3325 37.8716 55.3418 38.3004C55.3303 40.9252 53.4687 41.9051 52.3483 42.3134H52.3471Z" fill="white"/>
</svg>
