<svg width="54" height="54" viewBox="0 0 54 54" fill="none" xmlns="http://www.w3.org/2000/svg">
<path d="M52.583 23.5837L30.4163 1.41695C29.4762 0.472317 28.2381 0 27 0C25.7619 0 24.5238 0.472317 23.5837 1.41695L19.1999 5.80078L24.6247 11.2255C26.4268 10.1663 28.7746 10.3956 30.32 11.9409C31.8653 13.4862 32.09 15.8341 31.0307 17.6316L36.3638 22.9647C38.1659 21.9054 40.5138 22.1347 42.0591 23.68C43.8933 25.5143 43.8933 28.4857 42.0591 30.32C40.2249 32.1542 37.2534 32.1542 35.4192 30.32C33.8738 28.7746 33.6445 26.4268 34.7038 24.6247L29.3708 19.2916C28.9901 19.5163 28.5912 19.6814 28.1739 19.7869V34.2086C30.1962 34.7313 31.6957 36.5518 31.6957 38.7391C31.6957 41.3346 29.5954 43.4348 27 43.4348C24.4046 43.4348 22.3043 41.3346 22.3043 38.7391C22.3043 36.5518 23.8038 34.7313 25.8261 34.2086V19.7869C25.0419 19.5851 24.2945 19.1953 23.68 18.5808C22.1347 17.0355 21.91 14.6877 22.9693 12.8901L17.5399 7.46077L1.41695 23.5837C-0.472317 25.4684 -0.472317 28.5316 1.41695 30.4163L23.5837 52.583C24.5238 53.5277 25.7619 54 27 54C28.2381 54 29.4762 53.5277 30.4163 52.583L52.583 30.4163C54.4723 28.5316 54.4723 25.4684 52.583 23.5837Z" fill="white"/>
</svg>
