<svg width="58" height="57" viewBox="0 0 58 57" fill="none" xmlns="http://www.w3.org/2000/svg">
<path d="M0 0V57H58V0H0ZM31.5634 44.4549C31.5634 50.0022 28.2491 52.5342 23.4201 52.5342C19.0571 52.5342 16.5326 50.3203 15.2379 47.6357L19.6786 45.002C20.533 46.4906 21.3098 47.7502 23.1871 47.7502C24.9737 47.7502 26.1129 47.0632 26.1129 44.3786V26.1717H31.5634V44.4549V44.4549ZM44.458 52.5342C39.396 52.5342 36.1205 50.1676 34.5281 47.0632L38.9687 44.544C40.1339 46.4143 41.6616 47.8011 44.3415 47.8011C46.5942 47.8011 48.0442 46.6942 48.0442 45.1547C48.0442 43.3225 46.5683 42.6737 44.0696 41.5922L42.7103 41.0196C38.7746 39.3783 36.1723 37.3045 36.1723 32.9404C36.1723 28.9199 39.2924 25.8663 44.1473 25.8663C47.617 25.8663 50.1027 27.0496 51.8893 30.154L47.6429 32.8259C46.7107 31.1846 45.7009 30.5357 44.1344 30.5357C42.542 30.5357 41.5321 31.5281 41.5321 32.8259C41.5321 34.429 42.542 35.0779 44.8853 36.083L46.2446 36.6556C50.8795 38.6022 53.4817 40.5998 53.4817 45.0783C53.4817 49.8877 49.6237 52.5342 44.458 52.5342V52.5342Z" fill="white"/>
</svg>
