<svg width="53" height="51" viewBox="0 0 53 51" fill="none" xmlns="http://www.w3.org/2000/svg">
<path d="M25.482 0C17.0509 0 10.1935 9.27992 10.1935 20.6885C10.1935 26.2469 11.8419 31.2703 14.4894 34.9895C14.2929 35.5287 14.2292 36.1073 14.3037 36.6764C14.3781 37.2454 14.5885 37.7881 14.9171 38.2585C15.2456 38.7288 15.6826 39.113 16.191 39.3784C16.6995 39.6438 17.2643 39.7826 17.8378 39.7831C18.7839 39.7831 19.6912 39.407 20.3602 38.7374C21.0292 38.0678 21.4051 37.1597 21.4051 36.2128C21.4051 35.2659 21.0292 34.3578 20.3602 33.6883C19.6912 33.0187 18.7839 32.6426 17.8378 32.6426C17.8019 32.6433 17.7661 32.6447 17.7303 32.6465C15.6027 29.6247 14.2704 25.3876 14.2704 20.6885C14.2704 11.5302 19.3014 4.08032 25.482 4.08032C29.9055 4.08032 33.7286 7.90364 35.551 13.4284C37.1247 13.8935 38.6865 14.4811 40.2092 15.2135C38.4297 6.45717 32.5107 0 25.482 0ZM22.9339 15.8112C21.9878 15.8112 21.0805 16.1874 20.4115 16.8569C19.7425 17.5265 19.3666 18.4346 19.3666 19.3815C19.3666 20.3284 19.7425 21.2365 20.4115 21.9061C21.0805 22.5756 21.9878 22.9518 22.9339 22.9518C23.6774 22.9512 24.402 22.7181 25.0066 22.2851C25.6112 21.8522 26.0656 21.2411 26.3062 20.5371C30.1704 20.0753 34.7187 21.204 38.8675 23.7567C46.7136 28.5878 50.8762 37.2241 47.9571 42.6162C46.9297 44.5115 45.1209 45.8507 42.7175 46.4933C40.2408 47.1564 37.3557 47.0264 34.4203 46.2144C33.2869 47.3018 32.027 48.308 30.6897 49.2587C33.5782 50.3971 36.5309 51 39.3134 51C40.8647 51 42.3641 50.8175 43.7686 50.4421C47.2789 49.5016 49.9647 47.4699 51.5363 44.5647C55.5868 37.0794 50.9595 26.4087 41.0015 20.2781C35.853 17.1064 30.0481 15.7844 25.1197 16.5643C24.4949 16.0774 23.7259 15.8125 22.9339 15.8112V15.8112ZM6.39521 24.7648C0.475467 30.8323 -1.72583 38.6809 1.45827 44.5647C3.03197 47.4699 5.71572 49.5016 9.22598 50.4421C10.6305 50.8196 12.1339 51 13.6852 51C17.917 51 22.5491 49.63 26.7402 47.0472C32.1213 43.7352 35.9237 39.0982 37.6612 34.356C38.3992 34.0162 38.9992 33.4345 39.3621 32.707C39.7249 31.9796 39.8288 31.15 39.6566 30.3554C39.4843 29.5608 39.0463 28.8489 38.4148 28.3374C37.7834 27.8258 36.9964 27.5453 36.1841 27.5422C35.4943 27.5425 34.8195 27.7429 34.2413 28.1192C33.663 28.4955 33.2062 29.0314 32.926 29.6622C32.6459 30.293 32.5544 30.9915 32.6628 31.6732C32.7711 32.3549 33.0746 32.9906 33.5364 33.5032C31.9887 37.2293 28.8543 40.9582 24.6101 43.5725C19.8156 46.5226 14.4599 47.6153 10.2811 46.4973C7.87769 45.8547 6.06688 44.5135 5.04153 42.6202C3.12332 39.0764 4.27697 34.1351 7.51 29.7895C7.00853 28.188 6.62555 26.5112 6.39521 24.7648Z" fill="white"/>
</svg>
