<svg width="56" height="55" viewBox="0 0 56 55" fill="none" xmlns="http://www.w3.org/2000/svg">
<path d="M54.6667 0H1.33333C0.596 0 0 0.586667 0 1.30952V53.6905C0 54.4133 0.596 55 1.33333 55H54.6667C55.404 55 56 54.4133 56 53.6905V1.30952C56 0.586667 55.404 0 54.6667 0ZM33.3333 29.3923H26.6667V49.7619H21.3333V29.3923H14.6667V24.881H33.3333V29.3923ZM34.828 48.599V43.154C34.828 43.154 37.856 45.396 41.4893 45.396C45.1227 45.396 44.9827 43.0624 44.9827 42.7429C44.9827 39.3564 34.688 39.3564 34.688 31.8542C34.688 21.6517 49.688 25.6771 49.688 25.6771L49.5013 30.5276C49.5013 30.5276 46.9853 28.8802 44.144 28.8802C41.3027 28.8802 40.2773 30.2068 40.2773 31.625C40.2773 35.2851 50.6653 34.9198 50.6653 42.2858C50.6667 53.6315 34.828 48.599 34.828 48.599Z" fill="white"/>
</svg>
